<svg width="206" height="180" xmlns="http://www.w3.org/2000/svg">

 <g>
  <title>Layer 1</title>
  <path id="svg_3" d="m178.99999,213.8" opacity="undefined" stroke-linecap="undefined" stroke-linejoin="undefined" stroke="#000" fill="none"/>
  <path stroke="#535F75" id="svg_9" d="m22.66659,125.62146l157.54676,0.04095l-5.11243,5.14474l-147.26155,-0.12286l-5.17279,-5.06284l0.00001,0zm1.08267,-68.43672l155.44155,-0.12287l4.51109,5.27772l-164.52394,0.04095l4.5713,-5.1958zm-15.34018,34.29271l186.00154,-0.12286l-0.24043,5.27772l-185.64081,-0.08191l-0.1203,-5.07295zm186.15551,0.48951c0,34.93976 -41.75318,63.36361 -93.08321,63.36361c-51.30786,0 -93.05326,-28.42898 -93.05326,-63.36361c0,-34.9348 41.75295,-63.35864 93.05326,-63.35864c51.33003,-0.00513 93.08321,28.42384 93.08321,63.35864zm-93.07591,-68.43673c-55.40353,0 -100.48868,30.69784 -100.48868,68.43158c0,37.73888 45.08516,68.43672 100.48868,68.43672c55.4337,0 100.51133,-30.69784 100.51133,-68.43672c0,-37.73374 -45.07762,-68.43158 -100.51133,-68.43158zm28.19995,68.43673c0,37.33604 -14.85625,63.36361 -28.19995,63.36361c-13.3286,0 -28.18461,-26.02757 -28.18461,-63.36361c0,-37.34632 14.84869,-63.35864 28.18461,-63.35864c13.33617,-0.00513 28.19995,26.01232 28.19995,63.35864zm-28.19995,-68.43673c-23.14516,0 -35.63513,35.26091 -35.63513,68.43158c0,33.18079 12.48997,68.43672 35.63513,68.43672c23.1454,0 35.65801,-35.26105 35.65801,-68.43672c-0.00755,-33.17067 -12.51261,-68.43158 -35.65801,-68.43158zm66.04414,68.43673c0,34.93976 -29.63752,85.84911 -66.04414,85.84911c-36.39904,0 -66.02149,-50.91449 -66.02149,-85.84911c0,-34.9348 32.62245,31.47153 69.02149,31.47153c36.40662,-0.00513 63.04414,-66.40634 63.04414,-31.47153zm-63.04414,-88.96697c-40.5025,0 -76.472,51.22808 -76.472,88.96182c0,37.73888 33.9695,-30.30398 74.472,-30.30398c40.5176,0 72.47979,68.04286 72.47979,30.30398c0,-37.73374 -29.96219,-88.96182 -70.47979,-88.96182z" stroke-width="2" fill="#B1FFFF"/>
  <path id="svg_11" d="m148,46" opacity="NaN" stroke-width="2" stroke="#000" fill="#845335"/>
 </g>
</svg>